<svg version="1.1" xmlns="http://www.w3.org/2000/svg" viewBox="0 0 612.7290464660434 1382.034594372094" width="1838.1871393981303" height="4146.103783116282">
  <!-- svg-source:excalidraw -->
  
  <defs>
    <style class="style-fonts">
      @font-face {
        font-family: "Virgil";
        src: url("https://unpkg.com/@excalidraw/excalidraw@undefined/dist/excalidraw-assets/Virgil.woff2");
      }
      @font-face {
        font-family: "Cascadia";
        src: url("https://unpkg.com/@excalidraw/excalidraw@undefined/dist/excalidraw-assets/Cascadia.woff2");
      }
      @font-face {
        font-family: "Assistant";
        src: url("https://unpkg.com/@excalidraw/excalidraw@undefined/dist/excalidraw-assets/Assistant-Regular.woff2");
      }
    </style>
    
  </defs>
  <rect x="0" y="0" width="612.7290464660434" height="1382.034594372094" fill="#ffffff"></rect><g stroke-linecap="round" transform="translate(113.24940339521049 10) rotate(0 124.171875 123.5703125)"><path d="M32 0 C75.16 -2.89, 119.8 -0.32, 216.34 0 M32 0 C82.68 -0.37, 135.32 -2.17, 216.34 0 M216.34 0 C236.63 1.1, 247.11 12.38, 248.34 32 M216.34 0 C236.73 -1.24, 247.5 9.5, 248.34 32 M248.34 32 C248.4 103.15, 245.74 172.84, 248.34 215.14 M248.34 32 C250.49 85.05, 248.54 139.68, 248.34 215.14 M248.34 215.14 C246.81 234.82, 238.25 245.94, 216.34 247.14 M248.34 215.14 C249.52 235.1, 235.67 246.35, 216.34 247.14 M216.34 247.14 C169.37 249.15, 120.84 249.35, 32 247.14 M216.34 247.14 C159.71 245.87, 102.89 246.15, 32 247.14 M32 247.14 C11.08 245.93, 0.52 234.84, 0 215.14 M32 247.14 C12.6 247.33, -0.84 236.74, 0 215.14 M0 215.14 C-0.37 141.71, 0.57 67.03, 0 32 M0 215.14 C-1.04 177.13, -1.57 137.6, 0 32 M0 32 C1.95 12.51, 10.26 1.55, 32 0 M0 32 C-0.22 8.39, 11.33 -1.42, 32 0" stroke="#1e1e1e" stroke-width="2" fill="none"></path></g><g stroke-linecap="round" transform="translate(10 1028.733813122094) rotate(0 111.283203125 171.650390625)"><path d="M32 0 C74.37 0.73, 119.45 -1.79, 190.57 0 M32 0 C89.07 -0.33, 147.75 -0.37, 190.57 0 M190.57 0 C212.96 -0.35, 222.62 11.67, 222.57 32 M190.57 0 C213.29 0.84, 224.13 11.81, 222.57 32 M222.57 32 C223.77 122.44, 222.16 212.73, 222.57 311.3 M222.57 32 C224.21 132.23, 223.16 232.03, 222.57 311.3 M222.57 311.3 C222.95 334.12, 213.77 345.15, 190.57 343.3 M222.57 311.3 C220.29 334.17, 212.93 342.07, 190.57 343.3 M190.57 343.3 C152.76 343.56, 116.65 346.09, 32 343.3 M190.57 343.3 C138.17 342.78, 87.43 341.74, 32 343.3 M32 343.3 C9.88 342.62, -1.68 331.37, 0 311.3 M32 343.3 C10.87 344.59, 1.93 331.13, 0 311.3 M0 311.3 C1.14 217.48, -0.36 126.91, 0 32 M0 311.3 C1.49 247.13, 1.53 181.92, 0 32 M0 32 C0.68 9.32, 11.9 0.01, 32 0 M0 32 C-2.22 10.03, 8.98 -1.42, 32 0" stroke="#1e1e1e" stroke-width="2" fill="none"></path></g><g stroke-linecap="round"><g transform="translate(126.74078101541613 1006.7147650916394) rotate(0 72.91053905772162 -366.4687106708197)"><path d="M0.04 -1.04 C24.44 -38.15, 133.24 -100.13, 145.6 -222.14 C157.97 -344.15, 86.21 -647.92, 74.23 -733.1 M-1.4 1.02 C22.89 -36.48, 132.06 -101.79, 144.54 -223.94 C157.03 -346.09, 85.32 -647.14, 73.52 -731.86" stroke="#1e1e1e" stroke-width="2" fill="none"></path></g><g transform="translate(126.74078101541613 1006.7147650916394) rotate(0 72.91053905772162 -366.4687106708197)"><path d="M88.73 -706 C83.29 -712.46, 82.47 -718.03, 73.52 -731.86 M88.73 -706 C85.25 -714.45, 79.5 -721.33, 73.52 -731.86" stroke="#1e1e1e" stroke-width="2" fill="none"></path></g><g transform="translate(126.74078101541613 1006.7147650916394) rotate(0 72.91053905772162 -366.4687106708197)"><path d="M68.55 -702.28 C67.86 -709.62, 71.8 -716.07, 73.52 -731.86 M68.55 -702.28 C70.87 -711.74, 70.91 -719.69, 73.52 -731.86" stroke="#1e1e1e" stroke-width="2" fill="none"></path></g></g><mask></mask><g stroke-linecap="round"><g transform="translate(244.38671875 1247.8019444471593) rotate(0 178.0055389404297 -488.10917271793375)"><path d="M1.01 0.33 C60.14 -22.63, 341.34 23.84, 355.37 -138.77 C369.41 -301.38, 130.11 -835.94, 85.23 -975.33 M0.08 -0.54 C59.56 -23.21, 343.66 25.55, 357.75 -137.23 C371.84 -300.01, 130.33 -837.23, 84.59 -977.2" stroke="#1e1e1e" stroke-width="2" fill="none"></path></g><g transform="translate(244.38671875 1247.8019444471593) rotate(0 178.0055389404297 -488.10917271793375)"><path d="M104.3 -954.58 C98.21 -963.32, 90.82 -969.71, 84.59 -977.2 M104.3 -954.58 C95.72 -962.2, 89.78 -971.87, 84.59 -977.2" stroke="#1e1e1e" stroke-width="2" fill="none"></path></g><g transform="translate(244.38671875 1247.8019444471593) rotate(0 178.0055389404297 -488.10917271793375)"><path d="M85.15 -947.21 C85.76 -958.66, 85.01 -967.61, 84.59 -977.2 M85.15 -947.21 C83.67 -957.76, 84.9 -970.19, 84.59 -977.2" stroke="#1e1e1e" stroke-width="2" fill="none"></path></g></g><mask></mask></svg>